{"title":"Constantine S01E01 Non Est Asylum 720p HDTV X265","uid":11283067,"size":408926315,"categoryP":"video","categoryS":"hd___tv_shows","magnet":"?xt=urn:btih:9beac37b05ab3678314d95ce064c8f407261d5c9&amp;dn=Constantine+S01E01+Non+Est+Asylum+720p+HDTV+X265&amp;tr=udp%3A%2F%2Ftracker.openbittorrent.com%3A80&amp;tr=udp%3A%2F%2Fopen.demonii.com%3A1337&amp;tr=udp%3A%2F%2Ftracker.coppersurfer.tk%3A6969&amp;tr=udp%3A%2F%2Fexodus.desync.com%3A6969","seeders":2,"leechers":0,"uploader":"atm50","files":-1,"time":1414245144,"description":"Seasoned demon hunter and master of the occult John Constantine is armed with a ferocious knowledge of the dark arts and a wickedly naughty wit. He fights the good fight - or at least he did. With his soul already damned to hell, he's decided to abandon his campaign against evil until a series of events thrusts him back into the fray when an old friend's daughter becomes the target of supernatural forces.\n\nSource: Constantine S01E01 720p HDTV X264-DIMENSION\n\nFormat                         : MPEG-4\nFile size                      : 390 MiB\nDuration                       : 42mn 27s\nOverall bit rate               : 1 284 Kbps\n\nVideo\n\nFormat                         : HEVC [X265]\nBit rate                       : 1 026 Kbps\nMaximum bit rate               : 8 104 Kbps\nWidth                          : 1 280 pixels\nHeight                         : 720 pixels\nDisplay aspect ratio           : 16:9\nFrame rate                     : 23.976 fps\nStream size                    : 311 MiB (80%)\n\nAudio\n\nFormat                         : AC-3\nBit rate                       : 256 Kbps\nChannel(s)                     : 6 channels (5.1)\nSampling rate                  : 48.0 KHz\nBit depth                      : 16 bits\nCompression mode               : Lossy\nStream size                    : 77.7 MiB (20%)\n\nSubtitles: English (External)","torrent":{"xt":"urn:btih:9beac37b05ab3678314d95ce064c8f407261d5c9","amp;dn":"Constantine+S01E01+Non+Est+Asylum+720p+HDTV+X265","amp;tr":["udp%3A%2F%2Ftracker.openbittorrent.com%3A80","udp%3A%2F%2Fopen.demonii.com%3A1337","udp%3A%2F%2Ftracker.coppersurfer.tk%3A6969","udp%3A%2F%2Fexodus.desync.com%3A6969"],"infoHash":"9beac37b05ab3678314d95ce064c8f407261d5c9","infoHashBuffer":{"type":"Buffer","data":[155,234,195,123,5,171,54,120,49,77,149,206,6,76,143,64,114,97,213,201]},"announce":[],"urlList":[]}}